<svg id="Capa_1" enable-background="new 0 0 512.005 512.005" height="512" viewBox="0 0 512.005 512.005" width="512" xmlns="http://www.w3.org/2000/svg"><g><path d="m344.308 359.654 44.365-52.557c10.055-11.788 16.514-28.919 15.99-45.011l-9.056-62.758c-2.24-15.522-15.756-27.228-31.44-27.228h-82.53c-16.21 0-29.398 13.188-29.398 29.398 0 21.743 16.294 39.964 37.902 42.386l16.012 1.794-36.121 21.729c-1.563.911-21.703 12.881-31.434 30.258-2.024 3.614-.735 8.185 2.879 10.208 1.159.649 2.417.958 3.658.958 2.626 0 5.176-1.382 6.551-3.837 7.871-14.055 25.74-24.535 25.912-24.635.04-.023.079-.046.118-.069l62.766-37.073c3.684-1.894 5.134-6.416 3.24-10.1s-6.415-5.134-10.1-3.24l-6.042 3.107-35.768-4.007c-14.008-1.57-24.572-13.383-24.572-27.479 0-7.939 6.459-14.398 14.398-14.398h82.53c8.278 0 15.412 6.178 16.594 14.371l8.976 62.207c-.122 12.341-4.559 24.306-12.526 33.744l-44.365 52.557c-7.32 8.672-11.352 19.697-11.352 31.045l.002 50.667h-177.963v-45.613c.648-16.92-6.667-35.966-14.37-51.359-4.546-9.992-6.851-20.625-6.851-31.601v-37.924c0-4.142-3.358-7.5-7.5-7.5s-7.5 3.358-7.5 7.5v37.924c0 13.135 2.758 25.856 8.199 37.816 6.627 13.595 13.405 29.095 13.022 45.144v45.766c-10.059 1.185-17.893 9.751-17.893 20.124v39.762c0 11.181 9.096 20.277 20.276 20.277h204.547c11.181 0 20.277-9.096 20.277-20.277v-39.762c0-10.832-8.545-19.681-19.244-20.224l-.002-50.719c0-7.813 2.775-15.402 7.813-21.371zm-3.567 92.312v39.762c0 2.91-2.367 5.277-5.277 5.277h-204.546c-2.909 0-5.276-2.367-5.276-5.277v-39.762c0-2.909 2.367-5.276 5.276-5.276h204.547c2.909 0 5.276 2.367 5.276 5.276z"/><path d="m160.947 464.436c-4.093 0-7.411 3.318-7.411 7.411s3.318 7.411 7.411 7.411 7.411-3.318 7.411-7.411-3.318-7.411-7.411-7.411z"/><path d="m141.585 249.824c7.631 0 14.685-2.509 20.386-6.742 3.85 14.713 17.255 25.603 33.159 25.603 18.898 0 34.273-15.375 34.273-34.272v-71.357c0-8.96-3.46-17.124-9.109-23.237l-18.682-105.448c-.012-.069-.025-.138-.04-.207-1.004-4.871-.081-9.365 2.6-12.656 2.68-3.289 6.895-5.101 11.867-5.101 11.508 0 23.194 9.519 25.519 20.788l21.492 104.093c1.152 6.208 7.581 11.866 14.724 11.599 7.209-.235 12.94-5.389 13.936-12.533l14.639-105.047c1.527-11.005 12.211-20.303 23.331-20.303 9.457.095 17.666 7.928 15.836 18.488l-11.631 110.615c-.433 4.119 2.555 7.81 6.675 8.243 4.121.426 7.81-2.555 8.243-6.675l11.619-110.504c2.831-18.336-11.591-35.513-30.742-35.167-18.513 0-35.645 14.912-38.188 33.237l-14.282 102.454-20.962-101.53c-3.726-18.062-21.764-32.756-40.209-32.756-9.43 0-17.994 3.873-23.496 10.625-5.481 6.728-7.551 15.853-5.684 25.052l16.422 92.683c-14.644-4.216-33.628 4.884-39.423 19.292-5.995-5.14-13.774-8.256-22.272-8.256-18.898 0-34.273 15.375-34.273 34.272v40.473c-.001 18.899 15.374 34.274 34.272 34.274zm34.273-86.769c0-10.627 8.646-19.273 19.272-19.273s19.273 8.646 19.273 19.273v71.357c0 10.627-8.646 19.272-19.273 19.272s-19.272-8.646-19.272-19.272zm-53.546 12.023c0-10.627 8.646-19.272 19.273-19.272s19.272 8.646 19.272 19.272v40.473c0 10.627-8.646 19.272-19.272 19.272s-19.273-8.646-19.273-19.272z"/></g></svg>